<svg width="24" height="24" viewBox="0 0 24 24" fill="none" xmlns="http://www.w3.org/2000/svg">
<path d="M12 2C8.13 2 5 5.13 5 9C5 13.1 8.86 17.61 11.29 20.33C11.68 20.76 12.32 20.76 12.71 20.33C15.14 17.61 19 13.1 19 9C19 5.13 15.87 2 12 2Z" stroke="currentColor" stroke-width="2" stroke-linecap="round" stroke-linejoin="round"/>
<path d="M12 9C10.8954 9 10 9.89543 10 11V13C10 14.1046 10.8954 15 12 15C13.1046 15 14 14.1046 14 13V11C14 9.89543 13.1046 9 12 9Z" fill="currentColor"/>
<path d="M12 12C12.5523 12 13 11.5523 13 11V13C13 13.5523 12.5523 14 12 14C11.4477 14 11 13.5523 11 13V11C11 11.5523 11.4477 12 12 12Z" fill="white"/>
</svg>
